# xmcd
#
# Track frame offsets:
#	150
#	11675
#	23447
#	37497
#	51090
#	70292
#	85047
#	106765
#	122695
#	134932
#	153600
#	175200
#	191330
#	205172
#	221470
#	234387
#	250817
#	264927
#	280125
#	295140
#	315472
#	330912
#	345945
#
# Disc length: 4750 seconds
#
# Revision: 1
# Processed by: cddbd v1.5.2PL0 Copyright (c) Steve Scherf et al.
# Submitted via: audiograbber 1.83.01
#
DISCID=43128c17
DTITLE=Haggard, Merle - Yesterday's Wine 1981 - 1988
DYEAR=1998
DGENRE=Country
TTITLE0=Sing A Song (live)
TTITLE1=(My Friends Are Gonna Be) Strangers (live)
TTITLE2=My Favorite Memory
TTITLE3=Big City
TTITLE4=Are The Good Times Really Over (I Wish A Buck Was Still Silver)
TTITLE5=Yesterday's Wine (with George Jones)
TTITLE6=Going Where The Lonely Go
TTITLE7=Reasons To Quit (with Willie Nelson)
TTITLE8=You Take Me For Granted
TTITLE9=Half A Man
TTITLE10=Pancho And Lefty (with Willie Nelson)
TTITLE11=What Am I Gonna Do (With The Rest Of My Life)?
TTITLE12=That's The Way Love Goes
TTITLE13=Someday When Things Are Good
TTITLE14=Let's Chase Each Other Round The Room
TTITLE15=A Place To Fall Apart (with Janie Fricke)
TTITLE16=Natural High (with Janie Fricke)
TTITLE17=Kern River
TTITLE18=A Friend In California
TTITLE19=Out Among The Stars
TTITLE20=Twinkle, Twinkle Lucky Star
TTITLE21=Chill Factor
TTITLE22=Holding Things Together (live)
EXTD=YEAR: 1998
EXTT0=
EXTT1=
EXTT2=
EXTT3=
EXTT4=
EXTT5=
EXTT6=
EXTT7=
EXTT8=
EXTT9=
EXTT10=
EXTT11=
EXTT12=
EXTT13=
EXTT14=
EXTT15=
EXTT16=
EXTT17=
EXTT18=
EXTT19=
EXTT20=
EXTT21=
EXTT22=
PLAYORDER=
